<?xml version="1.0" standalone="no"?><!DOCTYPE svg PUBLIC "-//W3C//DTD SVG 1.1//EN" "http://www.w3.org/Graphics/SVG/1.1/DTD/svg11.dtd"><svg class="icon" height="512" viewBox="0 0 1024 1024" version="1.1" xmlns="http://www.w3.org/2000/svg"><path d="M522.666667 149.333333a373.333333 373.333333 0 1 1 0 746.666667 373.333333 373.333333 0 0 1 0-746.666667z m-74.24 497.706667c5.546667 20.053333 4.906667 38.826667-0.64 55.68l-2.133334 5.76a104.533333 104.533333 0 0 1-19.626666 30.506667c-21.76 23.68-52.053333 32.64-65.066667 25.173333-14.08-8.106667-7.04-41.6 18.133333-68.266667 27.093333-28.586667 66.133333-46.933333 66.133334-46.933333l3.2-1.92z m308.48-337.92c-17.066667-66.133333-126.933333-88.106667-231.04-51.2-61.866667 22.186667-128.853333 56.533333-177.066667 101.76-57.386667 53.333333-66.56 100.266667-62.72 119.68 13.226667 68.693333 107.52 113.706667 146.346667 147.2-11.52 5.76-95.146667 47.786667-114.773334 91.093333-20.906667 45.866667 3.413333 78.506667 19.2 82.56 49.066667 13.653333 99.413333-11.093333 126.506667-51.2a129.28 129.28 0 0 0 12.586667-114.346666c15.36-4.266667 33.706667-6.186667 56.96-3.413334 65.28 7.466667 78.293333 48.64 75.52 65.493334a44.8 44.8 0 0 1-20.906667 29.44c-4.693333 2.773333-6.186667 3.626667-5.546667 5.546666 0.426667 2.773333 2.773333 2.773333 6.4 2.133334 5.12-0.853333 34.133333-13.866667 35.413334-45.653334 1.493333-40.106667-36.693333-84.906667-104.96-83.84a167.893333 167.893333 0 0 0-58.24 7.893334 10.88 10.88 0 0 0-3.2-3.413334c-42.026667-45.226667-120.106667-76.8-116.693334-137.173333 0.853333-21.76 8.746667-79.786667 149.333334-149.76 115.2-57.386667 206.933333-41.6 222.933333-6.4 22.826667 49.92-49.066667 142.72-168.96 156.16-45.653333 5.12-69.546667-12.586667-75.52-19.2-6.4-6.826667-7.466667-7.253333-9.813333-5.973333-3.626667 1.92-1.28 7.893333 0 11.733333 3.84 9.386667 18.133333 25.6 43.52 34.133333 21.76 6.826667 75.52 11.093333 139.946666-14.08 72.32-27.946667 128.853333-106.026667 112.426667-171.306666l2.133333 2.133333z" fill="#FF4A7A" /></svg>